<mxfile host="65bd71144e">
    <diagram id="atk6S9MroC8cPyWgH0Co" name="Page-1">
        <mxGraphModel dx="3040" dy="1158" grid="1" gridSize="10" guides="1" tooltips="1" connect="1" arrows="1" fold="1" page="1" pageScale="1" pageWidth="827" pageHeight="1169" background="#ffffff" math="0" shadow="0">
            <root>
                <mxCell id="0"/>
                <mxCell id="1" parent="0"/>
                <mxCell id="3" value="2023" style="text;html=1;strokeColor=none;fillColor=none;align=center;verticalAlign=middle;whiteSpace=wrap;rounded=0;sketch=0;hachureGap=4;jiggle=2;curveFitting=1;fontFamily=Bowlby One SC;fontSource=https%3A%2F%2Ffonts.googleapis.com%2Fcss%3Ffamily%3DBowlby%2BOne%2BSC;fontSize=670;fontColor=#000000;" vertex="1" parent="1">
                    <mxGeometry width="1918" height="1078" as="geometry"/>
                </mxCell>
            </root>
        </mxGraphModel>
    </diagram>
</mxfile>
